<?xml version="1.0" standalone="no"?>
<!DOCTYPE svg PUBLIC "-//W3C//DTD SVG 20010904//EN"
 "http://www.w3.org/TR/2001/REC-SVG-20010904/DTD/svg10.dtd">
<svg version="1.0" xmlns="http://www.w3.org/2000/svg"
 width="898.000000pt" height="898.000000pt" viewBox="0 0 898.000000 898.000000"
 preserveAspectRatio="xMidYMid meet">
<metadata>
Created by potrace 1.14, written by Peter Selinger 2001-2017
</metadata>
<g transform="translate(0.000000,898.000000) scale(0.100000,-0.100000)"
fill="#000000" stroke="none">
<path d="M4277 8324 c-1 -1 -51 -5 -112 -9 -60 -4 -112 -8 -115 -10 -3 -2 -35
-6 -70 -10 -36 -4 -83 -10 -105 -15 -22 -5 -60 -11 -83 -15 -80 -11 -400 -94
-530 -136 -234 -77 -529 -202 -697 -297 -404 -227 -680 -434 -966 -727 -43
-44 -87 -91 -99 -105 -12 -14 -35 -40 -51 -57 -113 -125 -300 -392 -402 -576
-57 -102 -157 -301 -157 -313 0 -3 -12 -31 -26 -62 -103 -224 -212 -632 -249
-927 -4 -27 -8 -61 -10 -73 -24 -149 -25 -583 -1 -797 7 -60 38 -260 42 -266
2 -3 6 -21 9 -40 3 -19 11 -54 16 -79 6 -25 12 -53 14 -63 20 -95 114 -371
176 -517 35 -81 159 -331 179 -360 10 -14 25 -52 34 -85 26 -90 90 -218 167
-330 37 -55 76 -109 86 -120 10 -11 36 -43 58 -70 59 -74 108 -127 229 -244
60 -58 166 -163 235 -232 169 -168 318 -266 576 -376 44 -19 94 -47 110 -62
17 -16 62 -41 100 -56 39 -15 96 -41 128 -57 190 -95 523 -207 737 -247 30 -6
64 -12 75 -14 11 -3 45 -8 75 -12 30 -3 66 -8 80 -10 44 -6 154 -18 170 -18 8
0 56 -8 105 -19 50 -11 101 -21 115 -23 39 -5 123 -17 144 -21 115 -21 501
-20 614 0 15 3 95 15 147 22 56 7 229 47 342 80 428 122 938 359 1303 604 84
56 248 176 260 189 3 4 43 38 90 77 250 209 493 489 669 774 28 45 51 83 51
86 0 2 30 51 66 110 218 353 346 745 379 1164 2 30 7 108 10 173 2 65 7 122 9
126 2 3 7 38 11 76 34 349 27 597 -26 875 -11 58 -33 150 -49 205 -15 55 -31
114 -34 130 -20 114 -81 308 -133 424 -14 31 -42 107 -64 169 -68 197 -115
300 -188 415 -104 163 -296 407 -361 458 -30 24 -66 53 -80 65 -14 13 -36 32
-50 44 -28 24 -206 189 -254 235 -45 43 -133 115 -140 115 -3 0 -28 15 -54 33
-26 19 -78 55 -117 82 -106 73 -169 118 -183 132 -7 7 -16 13 -20 13 -4 0 -24
15 -44 34 -60 54 -445 201 -828 316 -415 124 -734 198 -935 216 -73 6 -372 13
-378 8z m277 -659 c76 -6 267 -29 311 -38 11 -3 36 -7 55 -11 43 -8 58 -11
138 -27 61 -13 64 -12 80 8 10 12 26 19 37 17 258 -42 499 -138 743 -297 40
-26 75 -47 77 -47 2 0 42 -22 89 -49 46 -27 95 -51 108 -55 112 -29 477 -347
680 -592 172 -209 331 -464 441 -709 98 -218 192 -517 202 -642 6 -67 14 -155
20 -198 2 -16 6 -66 10 -110 3 -44 8 -93 10 -110 2 -16 7 -57 10 -90 3 -33 8
-78 11 -100 6 -48 5 -200 0 -235 -3 -14 -7 -56 -11 -95 -3 -38 -8 -83 -10
-100 -3 -16 -7 -47 -10 -67 -3 -21 -8 -55 -11 -75 -3 -21 -7 -47 -9 -58 -6
-48 -38 -215 -50 -268 -9 -41 -11 -66 -4 -81 8 -17 1 -44 -34 -131 -72 -178
-173 -381 -252 -505 -98 -155 -190 -288 -259 -378 -56 -74 -326 -316 -484
-435 -229 -173 -572 -379 -751 -451 -40 -15 -247 -73 -301 -82 -14 -3 -53 -11
-86 -19 -71 -16 -96 -21 -179 -35 -33 -5 -71 -12 -85 -15 -14 -3 -45 -8 -70
-11 -25 -3 -56 -7 -70 -9 -37 -5 -128 -15 -185 -20 -190 -15 -254 -18 -450
-18 -184 1 -237 4 -320 21 -55 12 -111 23 -125 26 -64 11 -308 72 -410 101
-30 9 -59 17 -65 19 -160 41 -452 189 -735 370 -52 33 -99 64 -105 68 -5 5
-59 44 -120 89 -204 150 -288 227 -344 314 -63 98 -77 122 -92 157 -6 15 -18
30 -27 33 -10 3 -33 29 -52 58 -19 28 -51 71 -72 95 -114 126 -241 372 -298
575 -23 84 -24 89 -35 157 -3 25 -24 106 -45 180 -53 183 -66 245 -105 475 -3
17 -7 39 -10 50 -4 17 -9 78 -19 205 -2 19 1 41 7 48 5 7 11 89 12 185 2 155
6 207 20 302 3 17 7 48 11 70 20 138 71 334 132 505 78 221 206 477 335 670
48 73 176 250 187 260 3 3 40 46 82 96 146 173 284 294 474 414 96 61 179 110
186 110 7 0 49 27 93 60 44 32 91 65 105 72 14 7 43 25 65 39 83 56 296 138
450 174 16 3 65 24 110 45 44 21 109 43 145 50 36 6 76 13 90 16 14 2 48 7 75
10 28 3 61 7 75 10 14 2 72 7 130 10 58 4 106 7 107 8 5 4 302 -3 377 -9z"/>
<path d="M3757 6784 c-1 -1 -36 -5 -77 -8 -182 -17 -455 -86 -618 -156 -294
-128 -514 -277 -593 -403 -18 -28 -43 -64 -57 -79 -31 -34 -41 -83 -26 -127
14 -42 34 -53 97 -57 58 -3 71 2 202 80 203 120 480 230 634 251 14 2 47 8 72
14 82 19 204 28 439 35 63 2 135 9 160 17 155 46 235 184 174 301 -48 93 -159
139 -327 135 -43 0 -79 -2 -80 -3z"/>
<path d="M5445 6425 c-80 -31 -125 -96 -125 -182 0 -101 79 -203 199 -259 204
-96 307 -154 359 -201 26 -24 66 -52 88 -63 117 -52 359 -300 494 -505 79
-120 108 -147 170 -160 8 -2 20 -4 25 -5 25 -6 46 2 66 23 34 35 41 65 30 121
-6 28 -13 71 -16 96 -23 177 -188 440 -426 679 -182 181 -440 366 -613 437
-77 32 -193 41 -251 19z"/>
<path d="M2228 5513 c-24 -6 -28 -26 -29 -149 -1 -69 29 -154 80 -228 17 -24
31 -48 31 -53 0 -17 96 -100 170 -148 41 -27 108 -64 150 -82 41 -19 87 -40
102 -48 14 -8 37 -15 50 -15 12 0 64 -12 113 -26 138 -39 160 -42 284 -39 222
5 530 70 571 120 7 8 16 15 21 15 10 0 70 59 148 145 47 52 52 63 48 92 -3 18
-2 35 3 38 10 6 4 45 -9 58 -17 17 -75 14 -113 -5 -21 -10 -59 -21 -85 -24
-27 -4 -57 -12 -68 -19 -11 -6 -32 -15 -46 -18 -108 -27 -460 -28 -585 -3 -12
2 -38 7 -58 10 -98 16 -265 65 -328 97 -36 18 -209 139 -254 176 -12 10 -30
33 -40 50 -28 50 -92 73 -156 56z"/>
<path d="M4965 4945 c-25 -24 -25 -34 -6 -135 5 -25 9 -55 9 -67 1 -70 98
-226 213 -343 68 -70 100 -93 169 -127 142 -69 253 -97 420 -106 59 -3 94 -1
265 18 242 26 410 105 563 262 64 66 82 91 82 114 0 22 -6 30 -25 35 -14 3
-25 10 -25 15 0 14 -50 10 -99 -7 -41 -14 -99 -27 -176 -41 -16 -2 -50 -9 -75
-14 -118 -26 -152 -30 -245 -30 -89 -1 -166 5 -229 17 -65 12 -89 19 -174 47
-52 17 -129 49 -172 71 -69 37 -101 61 -229 172 -20 18 -55 42 -79 54 -23 12
-45 26 -48 31 -6 11 -83 52 -103 55 -7 2 -24 -8 -36 -21z"/>
<path d="M2168 4057 c-43 -19 -130 -108 -150 -155 -19 -42 -27 -150 -13 -172
3 -6 6 -29 7 -53 0 -23 6 -53 14 -67 7 -14 36 -73 63 -131 70 -148 139 -248
213 -310 35 -28 79 -68 99 -88 79 -78 140 -128 265 -213 283 -195 505 -297
784 -362 58 -14 138 -36 178 -50 80 -28 230 -60 332 -71 36 -4 68 -9 71 -11 4
-2 58 -6 120 -10 63 -3 132 -7 154 -9 42 -3 408 -17 485 -18 83 0 192 14 244
32 50 19 128 35 216 46 25 4 61 8 80 11 98 13 326 82 410 124 19 9 40 15 47
13 6 -2 41 10 77 26 36 17 71 31 79 31 21 0 144 66 212 115 72 51 138 122 167
179 22 43 26 116 10 158 -33 83 -151 155 -264 163 -61 4 -118 -8 -118 -26 0
-5 -15 -9 -32 -9 -38 0 -139 -47 -171 -79 -6 -6 -21 -11 -34 -11 -12 0 -48
-13 -80 -29 -68 -35 -116 -48 -233 -67 -67 -10 -159 -34 -203 -52 -16 -7 -34
-12 -40 -12 -7 0 -20 -7 -30 -15 -11 -7 -25 -11 -33 -8 -12 4 -92 -4 -194 -22
-71 -12 -174 -17 -355 -20 -110 -1 -210 -5 -222 -9 -11 -4 -56 2 -99 13 -44
11 -140 27 -214 36 -74 9 -156 23 -182 31 -26 8 -66 17 -90 19 -103 8 -290 74
-438 154 -66 35 -431 278 -505 334 -78 60 -227 225 -240 266 -3 11 -15 23 -25
26 -18 6 -26 24 -45 110 -4 19 -31 53 -70 91 -95 92 -185 129 -247 101z"/>
</g>
</svg>
